<svg width="128" height="205" viewBox="0 0 128 205" fill="none" xmlns="http://www.w3.org/2000/svg">
<rect width="128" height="205" fill="#D5D5D5"/>
<path d="M64.5277 93.2727V102H62.5504L59.397 97.4148H59.3459V102H56.9766V93.2727H58.9879L62.0902 97.8409H62.1584V93.2727H64.5277ZM68.8359 102.119C68.1257 102.119 67.5178 101.979 67.0121 101.697C66.5064 101.413 66.1186 101.018 65.8487 100.513C65.5788 100.004 65.4439 99.4148 65.4439 98.7443C65.4439 98.0739 65.5788 97.4858 65.8487 96.9801C66.1186 96.4716 66.5064 96.0767 67.0121 95.7955C67.5178 95.5114 68.1257 95.3693 68.8359 95.3693C69.5462 95.3693 70.1541 95.5114 70.6598 95.7955C71.1655 96.0767 71.5533 96.4716 71.8232 96.9801C72.093 97.4858 72.228 98.0739 72.228 98.7443C72.228 99.4148 72.093 100.004 71.8232 100.513C71.5533 101.018 71.1655 101.413 70.6598 101.697C70.1541 101.979 69.5462 102.119 68.8359 102.119ZM68.853 100.381C69.0518 100.381 69.2237 100.314 69.3686 100.18C69.5135 100.047 69.6257 99.8565 69.7053 99.6094C69.7848 99.3622 69.8246 99.0682 69.8246 98.7273C69.8246 98.3835 69.7848 98.0895 69.7053 97.8452C69.6257 97.598 69.5135 97.4077 69.3686 97.2741C69.2237 97.1406 69.0518 97.0739 68.853 97.0739C68.6428 97.0739 68.4624 97.1406 68.3118 97.2741C68.1612 97.4077 68.0462 97.598 67.9666 97.8452C67.8871 98.0895 67.8473 98.3835 67.8473 98.7273C67.8473 99.0682 67.8871 99.3622 67.9666 99.6094C68.0462 99.8565 68.1612 100.047 68.3118 100.18C68.4624 100.314 68.6428 100.381 68.853 100.381ZM48.9513 108.273V117H46.582V108.273H48.9513ZM50.1083 117V110.455H52.3413V111.699H52.4094C52.5458 111.29 52.7788 110.966 53.1083 110.727C53.4379 110.489 53.8299 110.369 54.2844 110.369C54.7447 110.369 55.141 110.491 55.4734 110.736C55.8058 110.977 56.006 111.298 56.0742 111.699H56.1424C56.2532 111.298 56.489 110.977 56.8498 110.736C57.2106 110.491 57.6339 110.369 58.1197 110.369C58.7475 110.369 59.256 110.571 59.6452 110.974C60.0373 111.378 60.2333 111.915 60.2333 112.585V117H57.881V113.182C57.881 112.895 57.8086 112.67 57.6637 112.509C57.5188 112.344 57.3242 112.261 57.0799 112.261C56.8384 112.261 56.6467 112.344 56.5046 112.509C56.3654 112.67 56.2958 112.895 56.2958 113.182V117H54.0458V113.182C54.0458 112.895 53.9734 112.67 53.8285 112.509C53.6836 112.344 53.489 112.261 53.2447 112.261C53.0827 112.261 52.9435 112.298 52.8271 112.372C52.7106 112.446 52.6197 112.553 52.5543 112.692C52.4918 112.828 52.4606 112.991 52.4606 113.182V117H50.1083ZM63.2173 117.102C62.7997 117.102 62.4304 117.034 62.1094 116.898C61.7912 116.759 61.5412 116.548 61.3594 116.267C61.1776 115.986 61.0866 115.628 61.0866 115.193C61.0866 114.835 61.1477 114.53 61.2699 114.277C61.392 114.021 61.5625 113.812 61.7812 113.651C62 113.489 62.2543 113.365 62.544 113.28C62.8366 113.195 63.152 113.139 63.4901 113.114C63.8565 113.085 64.1506 113.051 64.3722 113.011C64.5966 112.969 64.7585 112.911 64.858 112.837C64.9574 112.76 65.0071 112.659 65.0071 112.534V112.517C65.0071 112.347 64.9418 112.216 64.8111 112.125C64.6804 112.034 64.5128 111.989 64.3082 111.989C64.0838 111.989 63.9006 112.038 63.7585 112.138C63.6193 112.234 63.5355 112.384 63.5071 112.585H61.3423C61.3707 112.187 61.4972 111.821 61.7216 111.486C61.9489 111.148 62.2798 110.878 62.7145 110.676C63.1491 110.472 63.6918 110.369 64.3423 110.369C64.8111 110.369 65.2315 110.425 65.6037 110.536C65.9759 110.643 66.2926 110.795 66.554 110.991C66.8153 111.185 67.0142 111.412 67.1506 111.673C67.2898 111.932 67.3594 112.213 67.3594 112.517V117H65.1605V116.08H65.1094C64.9787 116.324 64.8196 116.521 64.6321 116.672C64.4474 116.822 64.2358 116.932 63.9972 117C63.7614 117.068 63.5014 117.102 63.2173 117.102ZM63.9844 115.619C64.1634 115.619 64.331 115.582 64.4872 115.509C64.6463 115.435 64.7756 115.328 64.875 115.189C64.9744 115.05 65.0241 114.881 65.0241 114.682V114.136C64.9616 114.162 64.8949 114.186 64.8239 114.209C64.7557 114.232 64.6818 114.253 64.6023 114.273C64.5256 114.293 64.4432 114.311 64.3551 114.328C64.2699 114.345 64.1804 114.361 64.0866 114.375C63.9048 114.403 63.7557 114.45 63.6392 114.516C63.5256 114.578 63.4403 114.656 63.3835 114.75C63.3295 114.841 63.3026 114.943 63.3026 115.057C63.3026 115.239 63.3665 115.378 63.4943 115.474C63.6222 115.571 63.7855 115.619 63.9844 115.619ZM71.6367 119.591C70.9805 119.591 70.418 119.497 69.9492 119.31C69.4833 119.125 69.1211 118.869 68.8626 118.543C68.6069 118.219 68.4634 117.847 68.4322 117.426H70.6992C70.7219 117.565 70.7788 117.678 70.8697 117.763C70.9606 117.848 71.0771 117.909 71.2191 117.946C71.364 117.986 71.5259 118.006 71.7049 118.006C72.0089 118.006 72.2603 117.932 72.4592 117.784C72.6609 117.636 72.7617 117.369 72.7617 116.983V115.875H72.6935C72.6083 116.097 72.4776 116.286 72.3015 116.442C72.1254 116.595 71.9137 116.713 71.6665 116.795C71.4194 116.875 71.1481 116.915 70.8526 116.915C70.3867 116.915 69.9577 116.807 69.5657 116.591C69.1765 116.375 68.864 116.033 68.6282 115.564C68.3952 115.095 68.2788 114.483 68.2788 113.727C68.2788 112.937 68.4009 112.295 68.6452 111.801C68.8924 111.307 69.2106 110.945 69.5998 110.714C69.9918 110.484 70.4038 110.369 70.8356 110.369C71.1594 110.369 71.4435 110.426 71.6879 110.54C71.9322 110.651 72.1367 110.8 72.3015 110.987C72.4663 111.172 72.5913 111.375 72.6765 111.597H72.7276V110.455H75.0799V116.983C75.0799 117.537 74.9364 118.007 74.6495 118.393C74.3654 118.783 73.9648 119.08 73.4478 119.284C72.9308 119.489 72.3271 119.591 71.6367 119.591ZM71.7219 115.244C71.9379 115.244 72.1225 115.185 72.2759 115.065C72.4322 114.943 72.5515 114.77 72.6339 114.545C72.7191 114.318 72.7617 114.045 72.7617 113.727C72.7617 113.403 72.7191 113.126 72.6339 112.896C72.5515 112.663 72.4322 112.486 72.2759 112.364C72.1225 112.239 71.9379 112.176 71.7219 112.176C71.506 112.176 71.3214 112.239 71.168 112.364C71.0174 112.486 70.9009 112.663 70.8185 112.896C70.739 113.126 70.6992 113.403 70.6992 113.727C70.6992 114.051 70.739 114.327 70.8185 114.554C70.9009 114.778 71.0174 114.95 71.168 115.07C71.3214 115.186 71.506 115.244 71.7219 115.244ZM79.4126 117.119C78.7138 117.119 78.1115 116.986 77.6058 116.719C77.103 116.449 76.7152 116.062 76.4425 115.56C76.1726 115.054 76.0376 114.449 76.0376 113.744C76.0376 113.068 76.174 112.477 76.4467 111.972C76.7195 111.466 77.1044 111.072 77.6016 110.791C78.0987 110.51 78.6854 110.369 79.3615 110.369C79.8558 110.369 80.3033 110.446 80.7038 110.599C81.1044 110.753 81.4467 110.976 81.7308 111.268C82.0149 111.558 82.2337 111.911 82.3871 112.325C82.5405 112.74 82.6172 113.207 82.6172 113.727V114.273H76.7706V112.977H80.4524C80.4496 112.79 80.4013 112.625 80.3075 112.483C80.2166 112.338 80.093 112.226 79.9368 112.146C79.7834 112.064 79.6087 112.023 79.4126 112.023C79.2223 112.023 79.0476 112.064 78.8885 112.146C78.7294 112.226 78.6016 112.337 78.505 112.479C78.4112 112.621 78.3615 112.787 78.3558 112.977V114.375C78.3558 114.585 78.3999 114.773 78.4879 114.938C78.576 115.102 78.7024 115.232 78.8672 115.325C79.032 115.419 79.2308 115.466 79.4638 115.466C79.6257 115.466 79.7734 115.443 79.907 115.398C80.0433 115.352 80.1598 115.287 80.2564 115.202C80.353 115.114 80.424 115.009 80.4695 114.886H82.6172C82.5433 115.341 82.3686 115.736 82.093 116.071C81.8175 116.403 81.4524 116.662 80.9979 116.847C80.5462 117.028 80.0178 117.119 79.4126 117.119Z" fill="black" fill-opacity="0.5"/>
</svg>
